<svg xmlns="http://www.w3.org/2000/svg" viewBox="0 0 32 32" width="32" height="32">
  <defs>
    <linearGradient id="cloudGradient" x1="0%" y1="0%" x2="100%" y2="100%">
      <stop offset="0%" style="stop-color:#87CEEB;stop-opacity:1" />
      <stop offset="50%" style="stop-color:#4FC3F7;stop-opacity:1" />
      <stop offset="100%" style="stop-color:#2196F3;stop-opacity:1" />
    </linearGradient>
    <filter id="shadow" x="-50%" y="-50%" width="200%" height="200%">
      <feDropShadow dx="1" dy="1" stdDeviation="1" flood-opacity="0.3"/>
    </filter>
  </defs>
  
  <!-- Main cloud shape -->
  <path d="M24.5 12c-1.1 0-2.1 0.3-3 0.8C20.8 10.2 18.6 9 16 9c-3.9 0-7 3.1-7 7 0 0.3 0 0.6 0.1 0.9C7.2 17.4 6 18.9 6 20.5c0 2.5 2 4.5 4.5 4.5h14c2.8 0 5-2.2 5-5s-2.2-5-4.5-5z" 
        fill="url(#cloudGradient)" 
        filter="url(#shadow)"/>
  
  <!-- Small decorative cloud -->
  <circle cx="8" cy="10" r="2.5" fill="rgba(255,255,255,0.4)"/>
  <circle cx="10" cy="9" r="1.8" fill="rgba(255,255,255,0.3)"/>
  
  <!-- Shine highlight -->
  <ellipse cx="18" cy="14" rx="4" ry="2" fill="rgba(255,255,255,0.2)"/>
</svg>